<?xml version="1.0" standalone="no"?>
<!DOCTYPE svg PUBLIC "-//W3C//DTD SVG 20010904//EN"
 "http://www.w3.org/TR/2001/REC-SVG-20010904/DTD/svg10.dtd">
<svg version="1.0" xmlns="http://www.w3.org/2000/svg"
 width="2947.000000pt" height="1960.000000pt" viewBox="0 0 2947.000000 1960.000000"
 preserveAspectRatio="xMidYMid meet">

<g transform="translate(0.000000,1960.000000) scale(0.100000,-0.100000)"
fill="#000000" stroke="none">
<path d="M8974 15359 c-288 -22 -468 -120 -559 -305 -46 -92 -81 -251 -95
-429 -25 -309 33 -565 191 -845 59 -105 72 -142 88 -237 l13 -71 151 78 c84
43 210 104 280 136 70 31 146 73 167 92 l40 34 -42 31 c-56 40 -75 62 -103
122 -65 138 -26 296 90 362 56 32 141 31 206 -2 48 -24 49 -24 59 -5 6 11 14
20 19 20 16 0 70 -116 92 -195 18 -68 21 -97 16 -195 -6 -139 -25 -200 -109
-360 -122 -230 -121 -227 -122 -283 -2 -149 158 -292 324 -290 106 0 216 49
252 110 9 16 26 66 38 111 17 67 33 101 84 175 122 177 114 216 -53 251 -153
32 -251 153 -296 368 -24 112 -20 193 13 263 31 65 80 204 107 302 20 70 4 60
155 98 127 32 222 97 306 208 56 74 117 197 143 288 l19 67 -77 4 c-42 3 -102
15 -136 27 -33 13 -91 34 -130 49 -58 21 -88 26 -170 26 -88 1 -111 -3 -192
-31 -115 -41 -186 -43 -324 -8 -92 24 -259 46 -319 43 -14 0 -70 -4 -126 -9z"/>
<path d="M12650 15261 c-52 -16 -91 -43 -115 -79 -22 -33 -27 -62 -45 -226
-11 -103 -20 -192 -20 -197 0 -11 5137 -13 5144 -1 2 4 12 84 22 178 15 146
15 177 4 204 -18 44 -56 87 -94 108 -29 16 -186 17 -2451 19 -1331 1 -2431 -2
-2445 -6z m4208 -197 c15 -11 22 -25 22 -50 0 -87 -109 -101 -126 -16 -5 24
-1 36 19 56 30 30 53 33 85 10z m280 0 c47 -33 16 -124 -42 -124 -27 0 -66 42
-66 70 0 27 39 70 64 70 12 0 32 -7 44 -16z m282 -4 c41 -41 12 -120 -44 -120
-28 0 -66 42 -66 72 0 25 44 68 70 68 11 0 29 -9 40 -20z"/>
<path d="M17590 14468 c0 -24 -3 -60 -6 -80 l-7 -37 859 -3 c846 -3 860 -3
894 -24 38 -22 77 -73 87 -113 6 -23 -7 -157 -58 -626 -10 -99 -26 -245 -34
-325 -8 -80 -26 -253 -40 -385 -14 -132 -36 -348 -50 -480 -53 -511 -95 -914
-105 -1000 -5 -49 -19 -180 -30 -290 -35 -346 -40 -378 -63 -402 l-20 -23
-3124 0 -3124 0 -24 25 c-30 29 -30 15 -5 245 11 102 20 188 20 193 0 4 -38 7
-85 7 -71 0 -85 -3 -85 -16 0 -9 -14 -147 -30 -306 -17 -160 -29 -293 -26
-295 2 -2 59 -15 127 -29 183 -38 916 -225 940 -240 5 -3 50 -16 101 -29 l93
-24 607 -1 607 0 55 49 c66 57 120 75 203 69 57 -4 189 -39 228 -61 37 -20
140 -36 230 -37 50 0 107 -5 127 -11 55 -15 103 -70 154 -178 25 -52 60 -117
79 -145 36 -54 109 -136 121 -136 3 0 14 -8 23 -18 9 -9 40 -37 69 -61 41 -34
52 -49 52 -72 0 -22 -6 -30 -26 -35 -36 -9 -118 4 -202 32 -40 13 -74 24 -76
24 -2 0 -6 -17 -9 -39 -11 -86 -51 -131 -117 -131 -35 0 -56 27 -65 85 -20
136 -28 158 -68 198 -74 74 -188 101 -258 61 -33 -19 -49 -45 -100 -157 -12
-27 -40 -67 -62 -88 -41 -41 -143 -99 -173 -99 -10 0 -14 -3 -10 -7 3 -4 806
-9 1784 -11 l1777 -3 3 -230 2 -229 -2633 0 -2634 0 -69 -24 c-38 -14 -123
-41 -189 -61 -66 -20 -131 -40 -145 -45 -14 -5 1380 -9 3098 -9 l3122 -1 0
-3779 0 -3778 -1797 -2 c-988 -1 -1801 -5 -1805 -7 -12 -8 -10 -38 4 -52 17
-17 10509 -17 10526 0 14 14 16 44 3 53 -5 3 -680 5 -1500 5 l-1491 0 0 3835
0 3835 260 0 260 0 0 265 0 265 -1042 0 c-574 0 -1054 0 -1068 0 -24 1 -23 2
7 15 46 20 101 82 117 134 8 25 18 78 21 116 3 39 8 81 10 95 l4 25 -12 -25
c-31 -65 -70 -108 -147 -162 -25 -17 -47 -35 -50 -38 -9 -12 -95 -47 -165 -69
-110 -33 -172 -42 -282 -40 -57 2 -105 0 -108 -2 -2 -3 14 -15 38 -27 23 -12
35 -22 27 -22 -23 0 -2402 0 -2422 0 -16 0 -18 12 -18 111 l0 111 -31 29 -31
29 -851 2 -851 3 -42 220 c-23 121 -41 221 -40 222 1 2 479 4 1062 5 l1059 3
55 26 c67 32 112 68 149 123 52 77 29 -113 271 2201 39 369 93 885 120 1147
47 446 50 481 37 537 -24 104 -82 176 -187 232 l-45 24 -877 3 -878 2 0 -42z
m4177 -4810 c-3 -8 -6 -5 -6 6 -1 11 2 17 5 13 3 -3 4 -12 1 -19z m-75 -100
c-8 -8 -9 -4 -5 13 4 13 8 18 11 10 2 -7 -1 -18 -6 -23z m-577 -56 c-3 -3 -11
0 -18 7 -9 10 -8 11 6 5 10 -3 15 -9 12 -12z m-4292 -39 c-79 -2 -207 -2 -285
0 -79 1 -15 3 142 3 157 0 221 -2 143 -3z m6885 -23 l22 0 0 -230 0 -230
-2475 0 -2475 0 0 228 c0 126 2 231 4 233 3 3 3406 2 4924 -1z m-598 -4370 c0
-2073 0 -3773 0 -3777 0 -5 -828 -8 -1840 -8 l-1840 0 0 3778 0 3777 1840 0
1840 0 0 -3770z"/>
<path d="M9230 14257 c-15 -7 -31 -29 -39 -54 -13 -37 -13 -44 2 -67 10 -14
34 -34 55 -45 58 -30 77 -56 74 -106 -3 -88 69 -127 122 -64 14 17 26 35 26
40 0 21 -32 21 -54 0 -35 -33 -46 -27 -46 27 0 29 -7 58 -19 76 -19 28 -95 86
-113 86 -4 0 -8 11 -8 25 0 41 38 58 110 50 56 -6 60 -6 60 13 0 11 -7 23 -16
26 -28 11 -128 6 -154 -7z"/>
<path d="M13141 14224 c0 -11 3 -14 6 -6 3 7 2 16 -1 19 -3 4 -6 -2 -5 -13z"/>
<path d="M13101 14034 c0 -11 3 -14 6 -6 3 7 2 16 -1 19 -3 4 -6 -2 -5 -13z"/>
<path d="M18265 13999 c-2 -8 -11 -41 -18 -74 -10 -46 -18 -61 -33 -63 -10 -2
-45 -12 -77 -23 l-58 -21 -50 47 -49 46 -65 -57 c-36 -31 -65 -62 -65 -68 0
-6 14 -31 30 -56 16 -25 30 -49 30 -54 0 -4 -16 -41 -37 -82 -33 -68 -39 -74
-67 -74 -17 0 -48 -3 -68 -6 -40 -7 -44 -16 -50 -129 l-3 -50 64 -15 63 -15
25 -78 24 -78 -46 -55 -47 -54 53 -65 c29 -36 57 -65 63 -65 6 0 34 16 63 35
l51 34 71 -36 71 -37 0 -63 c0 -75 0 -75 108 -77 l76 -1 14 67 14 67 48 11
c26 6 59 18 74 26 27 13 30 12 79 -31 29 -25 54 -45 57 -45 10 0 130 112 130
121 0 5 -16 34 -36 65 -32 51 -34 57 -20 73 8 9 27 42 41 74 l26 57 64 0 c35
0 67 5 71 11 3 6 9 48 11 94 l6 82 -67 14 c-58 11 -67 16 -72 38 -3 14 -13 50
-22 78 l-16 53 43 50 c26 30 41 57 37 66 -8 21 -89 123 -99 123 -4 1 -32 -15
-62 -35 l-55 -37 -69 34 -69 34 -7 73 c-7 66 -9 72 -30 72 -12 0 -50 3 -83 6
-48 5 -63 4 -67 -7z m155 -95 c0 -57 3 -74 14 -74 8 0 46 -16 85 -36 l71 -37
55 37 56 37 27 -32 c58 -69 58 -64 9 -122 l-45 -52 24 -70 c13 -39 24 -80 24
-92 0 -22 6 -24 98 -38 47 -8 44 3 27 -106 l-5 -36 -68 -7 c-68 -7 -68 -7 -81
-44 -7 -20 -26 -59 -42 -85 l-30 -48 31 -53 c16 -30 30 -58 30 -63 0 -5 -20
-26 -45 -46 l-45 -38 -50 42 -49 42 -53 -22 c-29 -11 -68 -24 -86 -27 -37 -8
-44 -18 -62 -91 l-12 -53 -64 0 -64 0 0 69 0 69 -83 41 c-45 23 -87 41 -91 41
-5 0 -31 -16 -59 -36 l-51 -37 -38 44 c-20 24 -38 50 -38 57 0 7 19 33 41 57
l42 45 -21 67 c-12 38 -23 79 -24 93 -3 22 -10 26 -67 38 -36 7 -66 14 -68 16
-2 2 -1 33 3 68 l6 65 70 9 c70 9 71 9 86 49 9 22 26 57 39 77 13 21 23 42 23
48 0 5 -14 33 -32 61 l-31 52 46 43 c25 24 50 44 54 44 5 0 26 -18 48 -40 45
-45 53 -47 98 -23 18 9 54 22 82 28 l50 11 13 60 c7 32 14 64 16 69 2 6 31 9
70 7 l66 -4 0 -74z"/>
<path d="M18200 13630 c-126 -59 -194 -202 -156 -331 64 -221 369 -242 476
-33 20 40 25 63 25 129 0 90 -16 134 -69 186 -47 47 -84 62 -161 66 -56 3 -79
0 -115 -17z m197 -27 c73 -34 133 -126 133 -203 0 -50 -30 -126 -66 -168 -112
-131 -299 -115 -377 33 -30 56 -30 164 0 221 25 46 81 100 127 120 44 19 141
17 183 -3z"/>
<path d="M14946 13763 c-3 -10 -8 -35 -12 -55 l-6 -38 610 0 610 0 6 38 c4 20
9 45 12 55 5 16 -28 17 -605 17 -572 0 -610 -1 -615 -17z"/>
<path d="M13947 13542 c-3 -4 -7 -24 -11 -45 -4 -21 -10 -45 -13 -53 -4 -12
105 -14 813 -14 451 0 825 4 832 9 7 4 15 31 19 59 l6 52 -821 0 c-452 0 -823
-4 -825 -8z"/>
<path d="M14238 13303 c353 -2 931 -2 1285 0 353 1 64 2 -643 2 -707 0 -996
-1 -642 -2z"/>
<path d="M8383 13145 c-73 -20 -136 -54 -228 -122 -334 -249 -638 -828 -800
-1525 l-28 -118 -678 0 -679 0 0 -47 c0 -62 40 -147 110 -233 101 -125 192
-346 335 -810 95 -309 229 -799 220 -808 -2 -2 -287 -4 -634 -4 l-631 0 0
-264 0 -264 310 0 310 0 0 -3825 c0 -2104 1 -3828 3 -3832 1 -5 -603 -9 -1343
-11 -740 -1 -1351 -4 -1357 -7 -16 -6 -17 -37 -1 -53 17 -17 3399 -17 3416 0
14 14 16 44 3 52 -4 3 -139 6 -300 6 l-291 1 0 3780 0 3779 339 0 338 0 6 -32
c3 -18 26 -130 51 -248 54 -259 94 -490 103 -585 5 -68 5 -71 -19 -82 -43 -19
-144 -120 -188 -187 -98 -152 -124 -308 -124 -766 -1 -325 4 -393 46 -590 85
-403 273 -698 538 -843 111 -61 141 -68 285 -68 86 1 149 -4 185 -14 47 -13
189 -15 948 -15 l892 0 0 -661 c-1 -598 -2 -660 -17 -655 -10 4 -31 -8 -58
-31 -117 -104 -188 -140 -290 -147 -22 -1 -47 -5 -55 -9 -8 -3 -78 -13 -155
-22 -77 -10 -143 -19 -147 -21 -3 -2 -67 -4 -142 -5 -104 0 -153 -5 -208 -20
-231 -64 -379 -214 -424 -429 -25 -120 -15 -237 45 -495 115 -502 127 -703 60
-1037 -12 -64 -19 -132 -17 -180 2 -69 0 -80 -20 -98 -36 -34 -62 -95 -62
-147 0 -51 26 -119 53 -142 10 -7 17 -17 17 -22 0 -4 -214 -8 -476 -9 -262 0
-481 -3 -485 -6 -13 -8 -11 -38 3 -52 17 -17 8109 -17 8126 0 14 14 16 44 3
52 -5 3 -727 6 -1605 6 -878 0 -1596 3 -1596 5 0 3 14 29 30 58 66 117 24 245
-96 298 l-42 19 -4 94 c-3 84 -8 102 -41 169 -26 52 -54 91 -92 125 l-55 50
46 129 c61 167 84 219 127 281 19 29 43 74 52 102 9 27 18 50 20 50 2 0 22
-34 45 -76 64 -117 212 -330 288 -418 87 -98 160 -158 239 -197 l62 -31 183 4
c123 4 206 11 253 22 82 20 221 64 250 79 11 6 25 12 32 13 10 2 120 56 213
106 67 35 230 150 224 159 -3 5 -2 8 3 7 13 -4 54 22 48 31 -2 5 1 8 8 7 29
-3 321 268 310 288 -3 6 -2 8 2 3 10 -9 45 21 45 40 0 7 4 12 8 11 5 -2 32 22
60 53 50 54 65 78 40 63 -7 -5 -8 -3 -4 5 5 7 11 10 14 7 8 -8 42 24 42 39 0
7 7 16 16 19 9 4 14 13 10 22 -3 8 -2 13 3 9 12 -7 84 92 77 104 -4 5 -1 13 5
17 8 5 9 3 4 -7 -5 -10 -5 -11 3 -4 27 26 122 192 122 214 0 19 3 22 9 12 19
-30 349 674 335 715 -4 13 -3 15 3 7 10 -14 22 15 108 267 104 305 189 595
181 617 -3 8 -2 12 2 9 11 -6 126 467 119 485 -3 8 -6 5 -6 -8 -1 -13 -5 -23
-9 -23 -5 0 -17 -18 -28 -40 -10 -22 -23 -40 -28 -40 -4 0 -6 -12 -2 -27 3
-16 3 -22 0 -16 -7 16 -22 3 -49 -44 -11 -18 -23 -33 -27 -33 -4 0 -8 -7 -8
-15 0 -8 -4 -15 -8 -15 -4 0 -16 -15 -27 -32 -23 -41 -246 -268 -262 -268 -6
0 -13 -4 -15 -8 -1 -4 -25 -23 -53 -42 -27 -19 -54 -41 -58 -48 -4 -6 -25 -21
-45 -32 -20 -12 -57 -34 -82 -50 -86 -55 -232 -130 -254 -130 -8 0 -18 -5 -21
-10 -4 -6 -11 -8 -16 -5 -5 3 -6 -2 -2 -11 4 -12 3 -15 -6 -10 -6 4 -19 2 -28
-6 -9 -7 -17 -11 -17 -9 -1 2 -18 -4 -40 -13 -21 -9 -42 -16 -47 -16 -5 0 -28
-9 -51 -19 -48 -22 -116 -45 -198 -67 -30 -8 -64 -19 -75 -23 -25 -11 -86 -27
-150 -41 -27 -5 -98 -21 -157 -35 -59 -14 -117 -25 -128 -25 -12 0 -49 -6 -83
-14 -112 -26 -398 -57 -687 -75 -208 -14 -670 -19 -670 -9 0 5 19 34 43 65
110 146 165 221 192 263 17 25 32 47 35 50 3 3 17 21 30 40 13 19 27 37 30 40
3 3 14 21 24 40 11 19 24 40 28 45 20 25 78 115 78 121 0 4 6 15 14 23 8 9 38
57 66 106 53 92 95 219 85 258 -2 12 -2 15 2 7 6 -13 25 55 52 191 l12 56 77
6 c42 4 104 13 137 22 51 14 142 16 642 15 320 0 600 2 622 6 89 14 122 104
61 166 l-31 30 -352 -2 c-194 -1 -403 -2 -466 -1 -113 1 -114 1 -96 21 10 11
22 17 28 13 6 -3 7 -1 3 5 -4 6 9 33 28 59 44 62 115 225 156 358 7 22 17 45
24 50 6 6 12 17 13 25 1 8 47 137 103 285 101 267 185 499 220 605 10 30 43
126 74 214 111 313 140 437 138 586 -3 184 -47 310 -148 419 -68 74 -143 121
-249 156 l-80 27 -295 -5 c-369 -7 -976 -51 -1281 -93 -44 -6 -46 -5 -59 25
-7 17 -38 55 -69 83 -68 63 -251 153 -324 161 -27 3 -45 1 -40 -4 4 -4 55 -28
112 -53 57 -25 128 -60 158 -78 56 -33 133 -111 133 -133 0 -7 -61 -21 -172
-39 -450 -71 -872 -172 -1288 -308 -207 -68 -271 -94 -336 -137 l-44 -30 0
162 c0 192 -13 386 -40 593 -11 84 -20 155 -20 160 0 4 53 -45 118 -108 64
-64 131 -128 148 -142 l31 -25 122 69 c281 161 538 360 702 543 55 62 60 70
46 84 -13 14 -26 4 -123 -97 -113 -116 -281 -257 -419 -351 -156 -106 -300
-189 -327 -189 -7 0 -81 69 -164 153 l-152 152 -36 185 c-74 375 -177 755
-329 1210 -51 151 -93 280 -95 287 -2 7 25 -15 60 -48 170 -163 403 -249 672
-249 142 0 188 7 184 29 -3 12 -13 15 -38 14 -19 -2 -93 -4 -165 -5 -164 -2
-267 21 -410 92 -126 63 -225 145 -305 252 -52 70 -72 111 -129 258 -77 199
-176 434 -197 468 l-14 22 -940 0 c-863 0 -940 1 -940 16 0 39 76 323 129 484
224 673 576 1150 911 1234 36 8 56 19 58 30 4 20 -14 20 -85 1z m910 -1923
c71 -163 190 -467 257 -652 366 -1022 561 -1931 548 -2566 l-3 -170 -52 -59
c-59 -66 -115 -172 -137 -260 -46 -182 -63 -697 -31 -949 43 -349 144 -627
301 -825 63 -80 167 -174 236 -214 21 -12 38 -25 38 -30 0 -4 -638 -6 -1417
-5 l-1418 3 -115 57 c-293 144 -465 358 -544 679 -36 147 -47 255 -47 470 1
204 6 277 52 689 44 390 43 530 -4 800 -49 278 -184 902 -227 1050 -5 19 -10
41 -10 47 0 10 224 13 1100 13 1093 0 1100 0 1100 20 0 20 -8 20 -1107 22
l-1107 3 -47 183 -47 182 1074 0 c1067 0 1074 0 1074 20 0 20 -7 20 -1079 20
-1020 0 -1080 1 -1085 18 -20 68 -96 343 -96 347 0 3 480 5 1066 5 l1065 0 -3
23 -3 22 -1071 3 -1070 2 -18 58 c-53 175 -155 473 -197 580 -68 169 -97 224
-168 316 -67 87 -101 153 -101 197 l0 29 1619 0 1618 0 56 -128z m-2643 -1794
c9 -20 87 -329 105 -415 l7 -33 -681 0 -681 0 0 228 c0 126 3 232 6 235 4 4
283 7 621 7 l613 0 10 -22z m6995 -1053 c182 -47 301 -154 356 -315 16 -50 21
-89 22 -170 0 -167 -23 -257 -196 -750 -164 -471 -440 -1199 -489 -1292 -59
-112 -167 -217 -283 -273 -96 -47 -171 -65 -295 -71 l-105 -6 54 27 c57 27
185 114 178 121 -2 2 -494 4 -1094 4 l-1091 0 -67 71 c-103 110 -202 276 -253
425 -28 82 -77 274 -91 354 -34 206 -36 523 -5 829 21 201 52 290 143 399 97
116 216 174 606 292 248 75 722 191 845 206 63 8 344 56 351 60 24 14 514 68
769 84 381 23 567 25 645 5z m-2068 -121 c-3 -3 -12 -4 -19 -1 -8 3 -5 6 6 6
11 1 17 -2 13 -5z m-217 -54 c-353 -91 -716 -209 -817 -266 -177 -98 -301
-284 -332 -494 -31 -217 -41 -630 -20 -846 31 -325 128 -617 275 -825 63 -90
179 -203 257 -250 31 -19 57 -38 57 -43 0 -5 -40 -7 -88 -4 -76 3 -99 9 -167
41 -344 164 -556 539 -615 1090 -23 219 -6 731 30 890 16 71 63 169 112 233
44 57 134 131 200 165 144 73 678 230 1103 324 217 48 219 41 5 -15z m-4401
-485 c-4 -71 -23 -254 -41 -405 -29 -251 -32 -301 -32 -580 -1 -337 6 -403 65
-587 86 -270 236 -455 490 -601 54 -31 99 -61 99 -66 0 -5 -40 -7 -88 -4 -76
3 -99 9 -167 41 -296 141 -486 424 -579 863 -39 186 -49 341 -43 642 9 438 38
567 159 720 43 54 129 125 139 115 4 -4 3 -66 -2 -138z m3161 -3900 l0 -1645
-80 0 -80 0 0 903 0 902 -33 19 c-17 11 -44 26 -59 34 -16 8 -28 18 -28 23 0
5 -5 9 -11 9 -10 0 -93 56 -129 87 -51 45 -81 64 -90 58 -6 -3 -7 0 -4 9 3 9
10 16 14 16 8 0 21 30 25 55 1 6 3 265 3 576 l2 566 53 15 c37 11 103 16 235
17 l182 1 0 -1645z m452 1628 c7 -4 85 -11 173 -15 88 -4 225 -11 305 -15
l145 -9 75 -53 c136 -98 266 -252 345 -412 38 -77 78 -208 94 -310 14 -82 14
-297 1 -370 -5 -30 -11 -67 -13 -84 -8 -55 -47 -193 -67 -239 -12 -30 -26 -46
-37 -46 -10 0 -52 -5 -93 -11 -41 -6 -133 -12 -205 -13 -75 -1 -147 -8 -170
-15 -159 -53 -184 -65 -242 -114 -13 -11 -27 -16 -35 -11 -7 4 -10 4 -6 -1 4
-4 3 -14 -3 -22 -13 -15 -33 -18 -24 -3 4 6 -14 10 -47 10 -69 0 -357 55 -368
70 -3 4 -21 10 -40 14 -19 4 -57 17 -83 30 -34 17 -50 20 -53 12 -2 -6 -3
-190 -2 -408 2 -218 0 -394 -4 -391 -5 2 -8 -192 -8 -431 l0 -436 -25 0 -25 0
0 1645 0 1644 199 -3 c110 -2 206 -8 213 -13z m2095 -155 c-3 -8 -6 -5 -6 6
-1 11 2 17 5 13 3 -3 4 -12 1 -19z m2630 -140 c-3 -8 -6 -5 -6 6 -1 11 2 17 5
13 3 -3 4 -12 1 -19z m-68 -253 c0 -5 -4 -3 -9 5 -5 8 -9 22 -9 30 0 16 17
-16 18 -35z m-92 -287 c-3 -7 -5 -2 -5 12 0 14 2 19 5 13 2 -7 2 -19 0 -25z
m-657 -181 c0 -18 -27 -77 -35 -77 -3 0 -53 21 -83 36 -5 2 31 79 40 85 16 10
77 -25 78 -44z m-180 -137 c-6 -12 -14 -20 -17 -17 -2 3 1 14 8 26 17 26 24
19 9 -9z m67 14 c-3 -3 -12 -4 -19 -1 -8 3 -5 6 6 6 11 1 17 -2 13 -5z m-41
-13 c-3 -4 12 -16 34 -26 22 -10 40 -20 40 -22 0 -2 -9 -21 -20 -42 -15 -30
-25 -39 -44 -37 -13 0 -22 4 -20 8 2 4 -5 9 -16 13 -11 3 -20 15 -20 25 0 10
-3 20 -7 23 -5 2 -2 2 5 1 6 -2 12 1 12 7 0 11 30 59 37 59 2 0 2 -4 -1 -9z
m675 -158 c-12 -20 -14 -14 -5 12 4 9 9 14 11 11 3 -2 0 -13 -6 -23z m-786
-13 c3 -5 1 -10 -4 -10 -6 0 -11 5 -11 10 0 6 2 10 4 10 3 0 8 -4 11 -10z
m-36 -32 c1 7 6 10 12 6 8 -4 7 -9 -2 -15 -17 -10 -29 -2 -28 19 0 14 2 13 9
-3 5 -11 9 -14 9 -7z m85 -14 c25 -14 46 -28 46 -30 0 -3 -9 -15 -21 -27 -11
-12 -18 -29 -16 -38 5 -19 -7 -19 -40 -1 -12 7 -30 9 -40 6 -15 -5 -16 -4 -3
6 13 10 11 11 -7 7 -22 -5 -22 -4 5 49 14 30 27 54 28 54 1 0 22 -12 48 -26z
m36 12 c0 -11 -19 -15 -25 -6 -3 5 1 10 9 10 9 0 16 -2 16 -4z m697 -18 c2
-17 0 -19 -7 -8 -5 8 -6 18 -4 22 8 12 10 10 11 -14z m-5487 -13 c0 -14 -4
-25 -9 -25 -4 0 -6 11 -3 25 2 14 6 25 8 25 2 0 4 -11 4 -25z m-38 -7 c-7 -7
-12 -8 -12 -2 0 14 12 26 19 19 2 -3 -1 -11 -7 -17z m2573 2 c-3 -5 -12 -10
-18 -10 -7 0 -6 4 3 10 19 12 23 12 15 0z m-15 -40 c-8 -5 -19 -10 -25 -10 -5
0 -3 5 5 10 8 5 20 10 25 10 6 0 3 -5 -5 -10z m2268 -35 c-3 -3 -9 2 -12 12
-6 14 -5 15 5 6 7 -7 10 -15 7 -18z m-101 -41 c-3 -3 -12 -4 -19 -1 -8 3 -5 6
6 6 11 1 17 -2 13 -5z m-7 -39 c18 16 20 17 14 2 -3 -9 -10 -17 -15 -17 -5 0
-4 -12 1 -26 6 -14 6 -23 1 -20 -5 3 -14 -8 -21 -24 -7 -17 -16 -30 -21 -30
-6 0 -73 35 -88 47 -2 1 4 12 13 22 10 11 15 25 10 32 -4 7 -3 10 4 5 6 -3 13
3 17 14 6 19 7 19 35 -2 29 -21 30 -21 50 -3z m-14 13 c-10 -6 -22 -6 -26 -2
-5 5 3 10 18 11 22 1 24 0 8 -9z m745 -31 c-10 -9 -11 -8 -5 6 3 10 9 15 12
12 3 -3 0 -11 -7 -18z m-20 -54 c-12 -20 -14 -14 -5 12 4 9 9 14 11 11 3 -2 0
-13 -6 -23z m-6253 -13 c92 -42 184 -171 234 -330 35 -114 32 -297 -10 -530
-38 -215 -51 -340 -59 -587 l-6 -193 -81 0 c-179 0 -291 -39 -384 -132 -87
-87 -131 -203 -132 -344 0 -37 -3 -42 -27 -47 -16 -3 -31 -3 -35 0 -14 8 -8
130 11 224 33 159 44 294 38 444 -7 165 -29 299 -98 600 -60 261 -69 362 -45
484 23 112 65 193 140 266 68 66 162 118 266 146 85 23 135 23 188 -1z m110 0
c96 -43 197 -188 240 -342 27 -101 23 -316 -11 -501 -38 -204 -57 -389 -62
-612 -3 -104 -7 -189 -10 -187 -3 1 -21 2 -42 2 l-36 0 6 193 c8 244 20 368
60 587 38 213 43 411 13 520 -30 113 -93 228 -162 298 -66 66 -65 73 4 42z
m2560 -6 c90 -45 168 -157 223 -319 35 -103 34 -314 -4 -510 -42 -222 -72
-554 -65 -723 l3 -82 -306 0 -306 0 -6 148 c-7 168 -29 307 -92 577 -56 238
-69 329 -60 428 12 148 56 250 144 337 64 64 125 100 225 135 127 43 172 45
244 9z m109 1 c94 -47 178 -165 225 -315 36 -117 33 -316 -9 -560 -40 -230
-54 -373 -57 -593 -2 -125 -6 -172 -14 -171 -7 1 -26 2 -44 3 l-31 1 6 193 c8
232 26 402 63 602 38 206 40 414 6 525 -38 120 -88 208 -157 277 -35 35 -58
63 -51 63 7 0 35 -11 63 -25z m2800 3 c-3 -8 -6 -5 -6 6 -1 11 2 17 5 13 3 -3
4 -12 1 -19z m-117 -22 c0 -2 -7 -7 -16 -10 -8 -3 -12 -2 -9 4 6 10 25 14 25
6z m-159 -53 c-12 -20 -14 -14 -5 12 4 9 9 14 11 11 3 -2 0 -13 -6 -23z m47 9
c-10 -2 -18 -8 -18 -14 0 -6 -2 -9 -5 -6 -12 12 7 37 23 30 16 -6 15 -7 0 -10z
m79 4 c0 -8 -6 -12 -15 -9 -11 5 -11 7 0 14 7 5 13 9 14 9 0 0 1 -6 1 -14z
m-30 -41 c36 -22 41 -36 18 -55 -8 -7 -15 -17 -15 -22 0 -6 7 -5 15 2 13 11
14 10 9 -4 -4 -10 -13 -15 -20 -12 -7 3 -16 1 -19 -5 -4 -6 -20 -1 -41 11 -18
12 -39 18 -45 14 -7 -4 -7 2 1 17 21 40 52 80 59 77 3 -2 21 -12 38 -23z m33
-1 c0 -2 -9 0 -20 6 -11 6 -20 13 -20 16 0 2 9 0 20 -6 11 -6 20 -13 20 -16z
m-144 -29 c-1 -8 -5 -17 -8 -21 -5 -4 -4 16 1 34 3 9 9 -1 7 -13z m-3126 -1
c0 -8 -19 -13 -24 -6 -3 5 1 9 9 9 8 0 15 -2 15 -3z m3168 -57 c9 -10 6 -13
-13 -12 -13 0 -27 4 -31 8 -5 4 -1 5 9 1 10 -3 17 -1 17 5 0 14 5 14 18 -2z
m-81 -51 c-5 -13 12 -31 52 -55 11 -7 10 -13 -3 -33 -9 -14 -13 -28 -9 -32 5
-4 1 -6 -7 -4 -9 2 -14 -4 -14 -14 2 -21 -6 -17 -63 29 -28 22 -43 29 -46 20
-4 -9 -6 -9 -6 1 -1 7 9 16 22 21 30 12 71 68 54 74 -6 3 -4 6 7 6 12 1 16 -4
13 -13z m853 -81 c0 -5 -5 -3 -10 5 -5 8 -10 20 -10 25 0 6 5 3 10 -5 5 -8 10
-19 10 -25z m-900 -45 c14 -11 21 -20 15 -20 -5 0 -21 9 -35 20 -14 11 -20 20
-15 20 6 0 21 -9 35 -20z m-3170 -33 c0 -4 -4 -5 -10 -2 -5 3 -10 13 -10 21 0
9 -5 12 -12 8 -7 -5 -8 -3 -3 6 6 10 11 9 22 -5 7 -11 13 -23 13 -28z m3085
24 c3 -5 0 -13 -6 -17 -7 -4 -9 -3 -5 4 3 5 0 13 -6 15 -9 4 -10 6 -1 6 6 1
14 -3 18 -8z m920 -25 c0 -19 -2 -37 -5 -39 -4 -5 -6 45 -2 66 4 17 7 5 7 -27z
m-843 0 c7 4 8 2 4 -4 -11 -18 -26 -14 -25 6 0 10 3 12 6 4 2 -6 10 -9 15 -6z
m-39 -17 c4 -16 3 -18 -9 -8 -16 13 -19 29 -5 29 5 0 11 -9 14 -21z m-39 -1
c-3 -4 7 -15 21 -24 35 -23 50 -53 35 -68 -8 -8 -10 -6 -5 9 5 14 -2 10 -22
-13 -29 -34 -48 -40 -56 -19 -4 9 -8 8 -17 -3 -10 -13 -11 -13 -7 0 2 8 -4 26
-14 39 -11 13 -19 29 -19 35 0 6 4 5 9 -2 6 -11 13 -7 30 16 15 22 18 32 9 35
-7 2 -1 4 14 3 14 0 24 -4 22 -8z m886 -25 c-11 -17 -11 -17 -6 0 3 10 6 24 7
30 0 9 2 9 5 0 3 -7 0 -20 -6 -30z m-1044 -92 c-4 -5 0 -12 6 -14 8 -3 6 -6
-4 -6 -18 -1 -24 10 -11 22 9 10 15 8 9 -2z m-806 -31 c0 -5 -5 -10 -11 -10
-5 0 -7 5 -4 10 3 6 8 10 11 10 2 0 4 -4 4 -10z m743 -5 c4 -8 2 -17 -3 -20
-6 -4 -10 3 -10 14 0 25 6 27 13 6z m91 -6 c-3 -6 6 -23 20 -38 l26 -27 -35
-34 -35 -34 -35 34 c-19 19 -35 29 -35 23 0 -6 6 -14 13 -16 9 -4 9 -6 0 -6
-7 -1 -17 9 -24 20 -8 15 -8 19 0 15 15 -10 14 7 -1 24 -11 12 -10 12 5 0 15
-11 21 -10 45 12 22 21 40 32 60 37 2 1 0 -4 -4 -10z m946 1 c0 -5 -2 -10 -4
-10 -3 0 -8 5 -11 10 -3 6 -1 10 4 10 6 0 11 -4 11 -10z m-850 -10 c0 -5 -4
-10 -10 -10 -5 0 -10 5 -10 10 0 6 5 10 10 10 6 0 10 -4 10 -10z m-937 -37 c7
-39 1 -40 -11 -4 -6 17 -7 31 -3 31 5 0 11 -12 14 -27z m867 -73 c0 -5 -4 -10
-10 -10 -5 0 -10 5 -10 10 0 6 5 10 10 10 6 0 10 -4 10 -10z m859 -11 c-5 -10
-15 -21 -22 -25 -8 -6 -8 -3 1 9 8 9 11 20 8 25 -3 5 1 9 9 9 10 0 11 -5 4
-18z m-1065 -1 c-5 -8 -2 -9 10 -5 11 4 15 3 11 -4 -8 -11 24 -51 35 -44 14 8
7 -31 -9 -49 -9 -10 -16 -21 -16 -24 0 -3 -11 -7 -25 -8 -17 -2 -32 5 -47 24
-29 35 -29 37 10 72 20 19 27 30 17 30 -13 0 -13 1 0 10 20 13 23 12 14 -2z
m66 -18 c-12 -23 -16 -24 -26 -8 -4 6 -3 8 3 5 6 -4 13 0 17 8 3 8 8 15 11 15
3 0 1 -9 -5 -20z m86 -10 c0 -12 -4 -16 -9 -11 -5 5 -6 14 -3 20 10 15 12 14
12 -9z m32 -5 c-3 -3 -9 2 -12 12 -6 14 -5 15 5 6 7 -7 10 -15 7 -18z m-231 3
c-9 -7 -24 -22 -33 -33 -8 -11 -12 -13 -8 -5 11 24 36 50 47 50 6 0 3 -6 -6
-12z m-528 -58 c11 -24 11 -24 -3 -6 -9 11 -16 24 -16 30 0 12 5 7 19 -24z
m1552 -46 c-11 -15 -21 -24 -21 -20 0 10 34 55 39 51 2 -2 -6 -16 -18 -31z
m-1051 6 c0 -5 -5 -10 -11 -10 -5 0 -7 5 -4 10 3 6 8 10 11 10 2 0 4 -4 4 -10z
m-35 -22 c5 4 5 1 1 -6 -6 -10 -11 -10 -22 -1 -8 7 -14 7 -14 1 0 -12 25 -34
31 -27 3 2 5 -4 6 -13 0 -9 3 -28 7 -40 4 -21 3 -22 -10 -11 -14 11 -20 8 -44
-21 -16 -19 -32 -32 -36 -27 -4 4 -2 7 5 7 7 0 0 16 -16 38 -32 40 -50 77 -32
67 6 -4 18 0 27 8 25 23 65 36 78 26 6 -5 15 -5 19 -1z m-398 -90 c-3 -8 -6
-5 -6 6 -1 11 2 17 5 13 3 -3 4 -12 1 -19z m221 -3 c-3 -3 -9 2 -12 12 -6 14
-5 15 5 6 7 -7 10 -15 7 -18z m-12 -20 c15 -20 24 -38 22 -41 -3 -3 -15 11
-27 31 -13 22 -26 33 -33 29 -7 -4 -8 -3 -4 4 10 17 12 16 42 -23z m94 -6 c0
-6 -4 -7 -10 -4 -5 3 -10 11 -10 16 0 6 5 7 10 4 6 -3 10 -11 10 -16z m-142 0
c18 9 23 6 41 -25 24 -41 27 -64 7 -64 -8 0 -16 -6 -19 -12 -4 -13 -67 88 -67
107 0 6 4 4 9 -4 6 -10 13 -10 29 -2z m250 -14 c2 -2 -7 -2 -21 -1 -13 0 -24
6 -24 13 0 9 6 9 21 1 12 -6 22 -12 24 -13z m-300 -20 c-3 -3 -9 2 -12 12 -6
14 -5 15 5 6 7 -7 10 -15 7 -18z m-2697 -22 c-12 -20 -14 -14 -5 12 4 9 9 14
11 11 3 -2 0 -13 -6 -23z m2649 17 c0 -5 -2 -10 -4 -10 -3 0 -8 5 -11 10 -3 6
-1 10 4 10 6 0 11 -4 11 -10z m1241 -23 c-10 -9 -11 -8 -5 6 3 10 9 15 12 12
3 -3 0 -11 -7 -18z m30 0 c-10 -9 -11 -8 -5 6 3 10 9 15 12 12 3 -3 0 -11 -7
-18z m-3524 -19 c-3 -8 -6 -5 -6 6 -1 11 2 17 5 13 3 -3 4 -12 1 -19z m2343
-2 c0 -3 -4 -8 -10 -11 -5 -3 -10 -1 -10 4 0 6 5 11 10 11 6 0 10 -2 10 -4z
m-2333 -58 c-3 -7 -5 -2 -5 12 0 14 2 19 5 13 2 -7 2 -19 0 -25z m-390 -20
c-3 -8 -6 -5 -6 6 -1 11 2 17 5 13 3 -3 4 -12 1 -19z m-976 -85 c23 -43 59
-104 80 -136 l39 -58 0 -110 0 -109 -195 0 -195 0 10 23 c5 12 30 75 55 140
25 64 63 142 85 173 21 31 46 78 55 105 9 27 18 49 20 49 2 0 22 -35 46 -77z
m4709 17 c0 -5 -2 -10 -4 -10 -3 0 -8 5 -11 10 -3 6 -1 10 4 10 6 0 11 -4 11
-10z m-3311 -69 c1 -35 -5 -22 -12 24 -5 28 -4 34 3 20 5 -11 9 -31 9 -44z
m-392 -3 c-3 -8 -6 -5 -6 6 -1 11 2 17 5 13 3 -3 4 -12 1 -19z m32 -109 c0 13
4 22 7 18 4 -3 3 -18 0 -34 -6 -21 -9 -24 -17 -12 -5 7 -8 25 -8 39 1 23 2 23
9 -5 7 -27 8 -27 9 -6z m378 -81 c-2 -13 -4 -3 -4 22 0 25 2 35 4 23 2 -13 2
-33 0 -45z m3037 54 c3 -5 -1 -9 -9 -9 -8 0 -12 4 -9 9 3 4 7 8 9 8 2 0 6 -4
9 -8z m-24 -32 c0 -5 -5 -10 -11 -10 -5 0 -7 5 -4 10 3 6 8 10 11 10 2 0 4 -4
4 -10z m-743 -172 c-3 -7 -5 -2 -5 12 0 14 2 19 5 13 2 -7 2 -19 0 -25z m20 0
c-3 -8 -6 -5 -6 6 -1 11 2 17 5 13 3 -3 4 -12 1 -19z m-3437 -3 c10 -12 10
-15 -3 -15 -8 0 -17 7 -21 15 -3 8 -2 15 3 15 5 0 14 -7 21 -15z m-850 -102
c0 -21 7 -83 15 -138 9 -63 12 -135 8 -195 l-6 -96 -44 -18 c-79 -33 -134
-130 -118 -213 3 -21 18 -57 31 -80 l25 -43 -81 0 c-75 0 -199 21 -227 38 -8
5 -8 19 2 58 29 113 -31 223 -139 250 l-28 7 4 96 c4 83 8 104 35 156 30 58
101 135 154 167 58 36 113 47 242 48 l127 0 0 -37z m112 -19 c4 -51 1 -63 -27
-110 l-33 -54 -6 30 c-3 17 -9 66 -12 110 l-7 80 40 0 41 0 4 -56z m586 -361
l-3 -418 -50 0 c-44 0 -50 3 -53 22 -2 13 -24 37 -50 57 -26 19 -56 44 -66 55
-10 11 -23 18 -27 15 -5 -3 -9 0 -9 6 0 6 -10 21 -21 33 -12 12 -44 55 -70 96
-63 95 -92 188 -93 300 -1 90 19 204 38 220 26 21 90 29 244 30 l162 1 -2
-417z m271 359 c38 -32 92 -70 120 -85 l51 -28 0 85 0 86 80 0 80 0 0 -110 c0
-103 1 -110 20 -110 19 0 20 7 20 110 l0 110 25 0 c25 0 25 -2 25 -77 0 -43 4
-84 9 -92 24 -38 330 33 518 120 l83 38 0 -40 c0 -21 -12 -99 -26 -171 -44
-224 -22 -345 83 -458 40 -43 77 -71 135 -100 44 -22 86 -40 94 -40 7 0 16 -4
19 -10 4 -6 -252 -9 -735 -7 l-740 2 -3 418 -2 417 38 0 c31 0 49 -10 106 -58z
m1282 20 c80 -39 150 -110 187 -190 20 -45 27 -77 30 -148 l4 -91 -34 -7 c-45
-8 -106 -61 -129 -110 -24 -54 -24 -122 1 -171 11 -21 18 -41 15 -43 -9 -9
-116 38 -171 74 -152 101 -199 243 -156 464 11 58 24 130 27 160 12 109 6 103
88 98 57 -2 87 -10 138 -36z m417 -74 c24 -231 82 -370 216 -522 15 -17 26
-41 26 -58 0 -30 32 -102 50 -113 27 -17 -3 -20 -161 -17 l-172 3 20 22 c35
38 46 70 46 127 0 58 -25 120 -61 153 -11 10 -42 26 -68 37 l-49 18 -6 93 c-7
104 -24 158 -68 222 -28 42 -99 111 -137 134 -15 9 19 12 167 12 l185 1 12
-112z m107 35 c15 -179 56 -317 127 -435 21 -34 27 -54 22 -72 -3 -14 -10 -26
-14 -26 -13 0 -100 120 -130 180 -15 30 -35 78 -44 105 -18 56 -46 230 -46
288 0 36 1 37 39 37 l39 0 7 -77z m-1219 9 c-18 -16 -18 -16 -6 6 6 13 14 21
18 18 3 -4 -2 -14 -12 -24z m2909 7 c-4 -5 -12 -9 -18 -8 -9 0 -8 2 1 6 6 2 9
10 6 15 -4 7 -2 8 5 4 6 -4 9 -12 6 -17z m-251 -3 c-3 -8 -13 -17 -22 -21 -13
-5 -13 -2 3 15 21 24 26 25 19 6z m-2382 -9 c-20 -6 -36 -6 -42 -1 -5 5 8 9
33 10 l42 1 -33 -10z m2668 3 c0 -5 -4 -10 -10 -10 -5 0 -10 5 -10 10 0 6 5
10 10 10 6 0 10 -4 10 -10z m-1508 -47 c74 -83 108 -172 108 -285 0 -66 -1
-68 -25 -68 -13 0 -40 -8 -60 -17 -19 -9 -37 -14 -41 -11 -3 3 -17 38 -30 78
-20 56 -25 92 -26 163 0 91 15 177 31 177 5 0 24 -17 43 -37z m1193 -1 c-3 -3
-11 0 -18 7 -9 10 -8 11 6 5 10 -3 15 -9 12 -12z m-42 -37 c-3 -8 -10 -15 -15
-15 -7 0 -6 5 1 13 6 8 7 18 3 22 -4 5 -2 5 5 1 7 -4 10 -13 6 -21z m-43 0
c-14 -8 -32 -14 -40 -14 -8 0 -1 6 15 14 40 18 57 18 25 0z m-2567 -2 c-7 -2
-19 -2 -25 0 -7 3 -2 5 12 5 14 0 19 -2 13 -5z m-1398 -75 c29 -189 136 -358
329 -520 32 -27 30 -62 -4 -71 -14 -4 -20 1 -22 19 -2 15 -33 49 -88 97 -58
50 -92 87 -107 119 -12 26 -38 59 -58 75 -36 27 -95 129 -109 185 -6 28 28
138 44 138 4 0 11 -19 15 -42z m-50 -199 c18 -33 15 -45 -10 -36 -9 4 -15 19
-15 37 0 38 5 38 25 -1z m253 -306 c37 -31 68 -60 70 -64 7 -16 -26 -23 -115
-23 -51 -1 -93 -1 -93 -1 4 0 60 122 60 131 0 21 6 18 78 -43z m-710 -84 c35
-13 26 -18 -33 -18 -59 1 -62 2 -42 24 12 14 25 12 75 -6z"/>
<path d="M12248 8263 c6 -2 18 -2 25 0 6 3 1 5 -13 5 -14 0 -19 -2 -12 -5z"/>
<path d="M11660 8010 c-9 -6 -10 -10 -3 -10 6 0 15 5 18 10 8 12 4 12 -15 0z"/>
<path d="M10856 7163 c-6 -14 -5 -15 5 -6 7 7 10 15 7 18 -3 3 -9 -2 -12 -12z"/>
<path d="M10940 6366 c0 -2 7 -7 16 -10 8 -3 12 -2 9 4 -6 10 -25 14 -25 6z"/>
<path d="M10911 6344 c0 -11 3 -14 6 -6 3 7 2 16 -1 19 -3 4 -6 -2 -5 -13z"/>
<path d="M12008 6213 c7 -3 16 -2 19 1 4 3 -2 6 -13 5 -11 0 -14 -3 -6 -6z"/>
<path d="M11168 6203 c6 -2 18 -2 25 0 6 3 1 5 -13 5 -14 0 -19 -2 -12 -5z"/>
<path d="M13033 6120 c0 -25 2 -35 4 -22 2 12 2 32 0 45 -2 12 -4 2 -4 -23z"/>
<path d="M12858 6073 c6 -2 18 -2 25 0 6 3 1 5 -13 5 -14 0 -19 -2 -12 -5z"/>
<path d="M9941 4663 c-10 -26 -10 -27 4 -9 8 11 15 23 15 28 0 15 -7 8 -19
-19z"/>
<path d="M9665 4279 c-4 -6 -5 -12 -2 -15 2 -3 7 2 10 11 7 17 1 20 -8 4z"/>
<path d="M9335 12960 c-4 -7 -3 -16 1 -20 5 -5 100 -43 212 -84 288 -107 378
-156 656 -358 145 -105 227 -178 466 -412 347 -340 797 -810 1260 -1316 129
-142 160 -168 160 -136 0 30 -847 934 -1275 1361 -366 365 -473 457 -771 659
-133 90 -260 152 -470 230 -110 41 -206 77 -215 81 -10 3 -20 1 -24 -5z"/>
<path d="M17430 12943 c0 -12 47 -23 96 -23 l34 0 0 -89 0 -89 53 -18 c28 -9
75 -32 104 -50 l51 -33 70 49 69 49 20 -22 c11 -12 34 -41 52 -65 l33 -42 -38
-46 c-82 -96 -77 -84 -55 -134 11 -25 25 -73 32 -108 6 -34 15 -65 19 -67 4
-3 42 -10 84 -16 l77 -12 -6 -56 c-13 -124 -9 -118 -68 -125 -28 -3 -65 -6
-82 -6 -28 -1 -33 -8 -83 -110 l-53 -110 40 -67 40 -67 -27 -29 c-15 -16 -43
-42 -63 -58 l-36 -28 -62 55 -62 56 -58 -26 c-31 -14 -80 -31 -108 -37 l-51
-12 -18 -83 -19 -84 -72 0 c-40 0 -73 -4 -73 -9 0 -13 38 -21 106 -21 l61 0
19 85 19 85 40 11 c22 5 65 20 96 33 l55 23 60 -53 c32 -30 64 -54 69 -54 6 0
33 20 60 44 28 24 62 54 77 67 l28 24 -45 77 -45 77 28 45 c16 25 37 65 46 90
l17 44 77 7 c42 3 82 8 89 10 6 2 14 36 17 82 4 43 9 90 11 105 5 29 -8 36
-108 54 -44 8 -67 27 -67 57 0 12 -11 52 -24 90 -13 37 -20 69 -16 72 4 3 31
31 59 64 l51 59 -61 73 c-33 41 -65 78 -69 82 -4 5 -41 -13 -82 -41 l-73 -49
-35 23 c-19 13 -58 34 -87 46 l-53 22 -1 60 c-1 34 -1 68 0 76 0 8 -3 21 -7
27 -10 16 -152 30 -152 16z"/>
<path d="M15334 12832 c-6 -4 -15 -23 -18 -42 -4 -19 -10 -43 -12 -53 -5 -16
25 -17 572 -15 l577 3 12 52 c7 29 10 55 7 58 -8 8 -1126 6 -1138 -3z"/>
<path d="M13151 12594 c0 -11 3 -14 6 -6 3 7 2 16 -1 19 -3 4 -6 -2 -5 -13z"/>
<path d="M17380 12495 c0 -11 13 -15 53 -15 94 -1 190 -64 237 -157 37 -72 35
-187 -3 -265 -55 -113 -165 -181 -288 -179 -32 0 -59 -4 -59 -9 0 -16 73 -23
127 -12 109 23 181 77 233 174 28 53 34 76 38 143 7 141 -54 250 -172 306 -70
33 -166 41 -166 14z"/>
<path d="M13646 12371 c-4 -5 -9 -30 -12 -55 l-7 -46 716 0 c673 0 716 1 721
18 3 9 8 34 12 55 l6 37 -715 0 c-423 0 -718 -4 -721 -9z"/>
<path d="M15631 12094 c0 -11 3 -14 6 -6 3 7 2 16 -1 19 -3 4 -6 -2 -5 -13z"/>
<path d="M16621 12014 c0 -11 3 -14 6 -6 3 7 2 16 -1 19 -3 4 -6 -2 -5 -13z"/>
<path d="M15145 11869 c-4 -27 -5 -52 -3 -54 3 -4 869 -7 1124 -5 17 0 23 8
28 39 3 22 9 46 12 55 6 15 -48 16 -574 16 l-580 0 -7 -51z"/>
<path d="M16507 11514 c-10 -13 -14 -24 -10 -24 9 0 36 40 31 45 -2 2 -11 -8
-21 -21z"/>
<path d="M16390 11469 c0 -5 5 -7 10 -4 6 3 10 8 10 11 0 2 -4 4 -10 4 -5 0
-10 -5 -10 -11z"/>
<path d="M16388 11443 c7 -3 16 -2 19 1 4 3 -2 6 -13 5 -11 0 -14 -3 -6 -6z"/>
<path d="M20913 10220 c-12 -5 -26 -18 -32 -29 -12 -22 -15 -121 -3 -136 11
-16 69 -55 74 -50 5 5 353 -10 583 -24 319 -21 285 -22 285 4 0 13 14 37 30
53 26 27 30 38 30 86 0 56 -21 95 -52 97 -92 6 -899 5 -915 -1z"/>
<path d="M20951 9844 c0 -11 3 -14 6 -6 3 7 2 16 -1 19 -3 4 -6 -2 -5 -13z"/>
<path d="M14720 6320 c-6 -11 -8 -20 -6 -20 3 0 10 9 16 20 6 11 8 20 6 20 -3
0 -10 -9 -16 -20z"/>
<path d="M14780 6336 c0 -2 8 -10 18 -17 15 -13 16 -12 3 4 -13 16 -21 21 -21
13z"/>
<path d="M14520 6246 c0 -2 7 -7 16 -10 8 -3 12 -2 9 4 -6 10 -25 14 -25 6z"/>
<path d="M15501 6144 c0 -11 3 -14 6 -6 3 7 2 16 -1 19 -3 4 -6 -2 -5 -13z"/>
<path d="M14559 6113 c-13 -16 -12 -17 3 -5 9 8 23 10 29 6 8 -4 9 -3 5 4 -10
17 -21 15 -37 -5z"/>
<path d="M14354 6039 c-19 -22 -19 -22 4 -8 12 8 22 17 22 21 0 12 -6 9 -26
-13z"/>
<path d="M14259 5969 l-24 -20 28 17 c15 9 27 18 27 20 0 8 -8 4 -31 -17z"/>
<path d="M14309 5923 c-13 -16 -12 -17 4 -4 9 7 17 15 17 17 0 8 -8 3 -21 -13z"/>
<path d="M14130 5906 c0 -2 7 -7 16 -10 8 -3 12 -2 9 4 -6 10 -25 14 -25 6z"/>
<path d="M14751 5864 c0 -11 3 -14 6 -6 3 7 2 16 -1 19 -3 4 -6 -2 -5 -13z"/>
<path d="M14861 5834 c0 -11 3 -14 6 -6 3 7 2 16 -1 19 -3 4 -6 -2 -5 -13z"/>
<path d="M15381 5394 c0 -11 3 -14 6 -6 3 7 2 16 -1 19 -3 4 -6 -2 -5 -13z"/>
<path d="M12731 5174 c0 -11 3 -14 6 -6 3 7 2 16 -1 19 -3 4 -6 -2 -5 -13z"/>
</g>
</svg>
