<?xml version="1.0" standalone="no"?>
<!DOCTYPE svg PUBLIC "-//W3C//DTD SVG 20010904//EN"
 "http://www.w3.org/TR/2001/REC-SVG-20010904/DTD/svg10.dtd">
<svg version="1.0" xmlns="http://www.w3.org/2000/svg"
 width="230.000000pt" height="219.000000pt" viewBox="0 0 230.000000 219.000000"
 preserveAspectRatio="xMidYMid meet">

<g transform="translate(0.000000,219.000000) scale(0.100000,-0.100000)"
fill="#000000" stroke="none">
<path d="M258 2180 c-99 -17 -181 -81 -230 -180 -23 -44 -23 -50 -23 -450 0
-400 0 -406 23 -450 12 -25 36 -62 52 -82 35 -42 139 -98 184 -98 59 0 57 24
31 -312 -5 -70 -3 -80 15 -98 15 -15 28 -19 42 -14 12 3 128 98 257 210 l236
204 351 0 c361 0 438 6 506 41 55 28 107 84 137 148 l26 56 0 395 0 395 -33
67 c-36 73 -79 114 -159 151 -48 22 -48 22 -708 24 -363 0 -681 -3 -707 -7z
m1393 -123 c24 -13 58 -43 74 -66 l30 -43 0 -398 0 -398 -30 -43 c-16 -23 -50
-53 -74 -66 -44 -23 -45 -23 -440 -23 l-396 0 -203 -176 c-112 -96 -205 -174
-206 -172 -1 2 1 44 5 93 12 145 11 233 -3 242 -7 4 -48 10 -90 14 -93 7 -143
35 -185 106 l-28 48 0 375 c0 369 0 376 22 417 23 43 69 84 113 102 16 6 280
10 696 10 l671 1 44 -23z"/>
<path d="M1257 1786 c-114 -31 -175 -149 -147 -284 24 -111 96 -167 217 -167
54 -1 77 -5 91 -19 15 -12 33 -16 67 -14 l47 3 -31 38 -30 39 24 36 c64 99 55
240 -21 316 -53 53 -138 74 -217 52z m125 -126 c29 -29 30 -34 26 -100 -3 -65
-15 -100 -25 -72 -3 7 -24 12 -55 12 l-49 0 21 -27 c18 -23 19 -29 6 -31 -23
-5 -56 17 -66 44 -6 14 -10 52 -10 85 0 54 3 64 29 90 40 39 82 39 123 -1z"/>
<path d="M330 1565 l0 -225 60 0 59 0 3 88 3 87 88 3 87 3 0 44 0 45 -90 0
-90 0 0 40 0 39 98 3 97 3 3 48 3 47 -160 0 -161 0 0 -225z"/>
<path d="M767 1783 c-7 -13 -137 -423 -137 -434 0 -6 25 -9 62 -7 l62 3 9 38
9 37 77 0 78 0 12 -40 12 -40 63 0 64 0 -54 168 c-29 92 -62 192 -72 222 l-19
55 -81 3 c-44 1 -82 -1 -85 -5z m110 -193 c11 -38 18 -72 15 -75 -3 -3 -23 -5
-44 -5 -28 0 -38 4 -38 15 0 22 34 135 40 135 4 0 15 -31 27 -70z"/>
<path d="M2050 1332 l0 -388 -26 -52 c-14 -28 -43 -65 -64 -82 -74 -59 -83
-60 -530 -60 l-408 0 -146 -152 -145 -153 364 -5 364 -5 238 -211 c131 -115
246 -213 255 -217 10 -3 26 1 38 11 20 17 21 21 10 162 -5 80 -12 166 -14 191
l-5 47 37 6 c122 22 211 84 253 178 l24 53 0 425 0 425 -24 47 c-30 61 -89
120 -146 147 -81 38 -75 68 -75 -367z"/>
</g>
</svg>
