<?xml version="1.0" standalone="no"?>
<!DOCTYPE svg PUBLIC "-//W3C//DTD SVG 20010904//EN"
 "http://www.w3.org/TR/2001/REC-SVG-20010904/DTD/svg10.dtd">
<svg version="1.0" xmlns="http://www.w3.org/2000/svg"
 width="600.000000pt" height="600.000000pt" viewBox="0 0 600.000000 600.000000"
 preserveAspectRatio="xMidYMid meet">

<g transform="translate(0.000000,600.000000) scale(0.100000,-0.100000)"
fill="#000000" stroke="none">
<path d="M4243 4770 c-106 -25 -132 -91 -112 -288 l12 -127 54 -53 c51 -50 53
-55 38 -72 -10 -11 -14 -26 -10 -42 3 -13 2 -35 -3 -48 l-10 -25 -11 29 c-6
15 -25 61 -42 102 l-31 74 -26 -14 c-86 -44 -281 -161 -300 -179 -13 -12 -30
-34 -38 -49 -21 -41 -43 -203 -51 -373 -8 -197 0 -222 107 -344 l79 -89 -15
-53 c-18 -70 -18 -249 1 -404 8 -66 22 -262 30 -435 8 -173 22 -389 30 -480 8
-91 16 -188 18 -217 2 -28 12 -64 22 -79 11 -17 19 -52 21 -89 6 -122 43 -176
121 -177 89 -1 101 31 58 165 -29 91 -30 97 -9 97 10 0 13 6 10 18 -20 63 -28
145 -33 352 -4 190 -2 261 12 370 10 74 21 226 24 337 4 125 10 206 17 213 8
8 21 -12 49 -72 53 -117 73 -180 84 -262 5 -41 17 -86 30 -106 11 -19 21 -44
21 -54 0 -11 11 -38 24 -60 24 -41 24 -44 21 -276 -2 -129 2 -328 8 -443 l11
-207 41 -20 c33 -16 44 -28 53 -59 11 -33 19 -42 71 -65 59 -26 142 -35 169
-17 19 11 -11 69 -76 147 -59 71 -76 100 -62 109 6 3 7 55 3 133 -3 81 1 204
11 340 9 117 15 216 13 220 -3 4 -10 59 -16 122 -28 273 -43 405 -67 555 -25
150 -28 245 -10 286 5 11 -3 28 -23 52 -17 19 -31 38 -31 42 0 4 33 53 74 109
119 164 111 134 111 416 -1 344 -12 375 -156 428 -31 11 -85 39 -119 61 -35
23 -66 41 -69 41 -4 0 -13 -21 -20 -47 -8 -27 -24 -84 -37 -128 -18 -64 -23
-73 -23 -45 -1 19 -5 49 -10 67 -6 21 -5 35 2 42 8 8 7 16 -6 28 -16 16 -14
20 28 63 43 44 47 52 80 185 37 148 42 196 22 234 -26 51 -97 77 -164 61z m36
-1316 c19 17 20 17 26 -21 4 -21 9 -46 12 -55 4 -16 -3 -18 -57 -18 l-62 0 6
38 c13 73 15 76 37 56 18 -16 20 -16 38 0z"/>
<path d="M720 4692 c-54 -29 -80 -75 -80 -138 0 -41 -4 -54 -15 -54 -11 0 -15
-11 -15 -39 0 -30 6 -44 25 -59 32 -25 47 -65 45 -122 -3 -80 -1 -87 46 -139
l46 -51 -22 -30 c-17 -24 -19 -34 -10 -45 9 -11 8 -19 -4 -37 -9 -12 -17 -45
-17 -73 l-2 -50 -9 60 c-4 33 -15 93 -23 133 -8 40 -15 95 -15 122 0 28 -3 50
-6 50 -3 0 -22 -13 -42 -30 -28 -22 -65 -36 -148 -55 -62 -14 -119 -32 -129
-39 -10 -7 -26 -50 -40 -107 -12 -52 -34 -124 -49 -162 -22 -58 -26 -83 -26
-176 0 -72 -5 -120 -15 -143 -11 -27 -12 -44 -4 -72 8 -30 6 -56 -10 -124 -11
-48 -23 -132 -27 -186 -7 -95 -6 -99 12 -92 63 26 72 27 115 12 30 -10 45 -12
50 -5 3 6 12 51 19 100 6 49 16 102 21 117 8 24 8 24 4 -8 -3 -19 -9 -80 -15
-135 -6 -55 -17 -133 -25 -174 -19 -96 -19 -103 7 -137 19 -24 22 -38 19 -94
-1 -36 2 -111 9 -165 9 -84 8 -109 -5 -155 -8 -30 -26 -129 -39 -220 -14 -91
-39 -245 -55 -344 -19 -108 -30 -205 -29 -245 3 -59 -1 -74 -34 -143 -24 -49
-38 -92 -38 -117 0 -34 4 -40 30 -51 80 -33 163 25 185 130 4 19 13 42 20 50
53 60 163 427 221 730 42 222 73 358 83 365 17 10 70 -231 100 -460 21 -160
22 -415 1 -469 -20 -54 -12 -96 25 -137 22 -25 37 -53 41 -78 7 -45 59 -113
105 -136 37 -19 103 -19 119 0 19 23 5 84 -45 200 -51 116 -54 138 -24 159 18
13 20 18 10 48 -6 18 -15 87 -19 153 -13 179 13 801 39 941 7 37 9 110 5 197
-4 90 -3 137 4 137 6 0 10 -42 10 -110 0 -67 4 -110 10 -110 6 0 10 7 10 15 0
9 10 15 23 16 60 3 103 -4 113 -17 17 -22 11 924 -6 1031 -22 135 -33 148
-181 196 -52 17 -103 39 -115 50 -23 21 -34 16 -34 -15 -1 -12 -18 -65 -38
-118 l-38 -97 -13 30 c-10 23 -10 33 -1 44 9 11 8 20 -9 41 l-21 26 26 21 c14
11 39 38 54 59 25 34 28 45 23 91 -7 66 11 134 37 142 12 4 24 22 31 48 9 34
8 43 -5 53 -11 7 -16 27 -16 56 0 50 -26 97 -72 131 -38 29 -114 33 -158 9z
m363 -1472 l6 -55 -14 40 c-7 22 -13 65 -13 95 0 54 0 54 8 15 4 -22 10 -65
13 -95z"/>
<path d="M2944 4612 c-80 -38 -122 -114 -149 -269 -13 -74 -13 -78 8 -104 27
-35 35 -35 49 -4 9 19 14 22 25 14 7 -6 13 -23 13 -38 0 -18 19 -50 56 -94
l57 -68 40 67 c28 45 56 77 88 98 54 35 59 50 59 181 0 101 -13 148 -53 192
-28 30 -39 35 -92 39 -46 4 -70 0 -101 -14z"/>
<path d="M1920 4599 c-39 -16 -79 -58 -117 -127 -41 -73 -41 -101 1 -194 21
-48 38 -67 101 -113 42 -31 83 -55 93 -53 9 2 22 20 29 41 7 21 27 59 44 83
36 52 79 153 79 185 0 60 -81 157 -148 177 -46 14 -49 14 -82 1z"/>
<path d="M5252 4603 c-30 -6 -85 -64 -105 -110 -32 -75 -57 -129 -77 -163 -25
-44 -25 -91 0 -165 11 -32 20 -75 20 -95 0 -35 -3 -39 -50 -59 -27 -12 -57
-32 -65 -45 -26 -40 -36 -183 -40 -568 -3 -287 -7 -386 -20 -457 -10 -55 -14
-102 -9 -119 4 -15 8 -47 9 -72 0 -25 22 -109 48 -186 52 -157 54 -166 32
-218 -9 -20 -24 -78 -35 -129 -10 -51 -34 -157 -53 -237 -63 -266 -105 -464
-115 -538 -18 -133 28 -214 113 -198 23 5 36 14 41 29 4 12 19 37 35 55 16 17
35 56 43 85 8 28 26 93 40 142 13 50 46 173 71 275 25 102 68 264 95 360 27
96 69 256 95 354 45 177 67 237 77 220 3 -5 20 -64 37 -132 53 -211 63 -417
36 -717 -9 -93 -22 -242 -31 -330 -19 -206 -18 -220 14 -285 27 -55 27 -55 78
-58 49 -3 52 -2 78 36 66 96 110 550 122 1252 6 394 7 417 27 452 11 21 28 40
37 43 32 10 60 96 60 187 0 72 -22 186 -50 263 -12 33 -29 89 -36 125 -85 407
-93 431 -147 453 -43 18 -57 55 -57 147 0 62 -2 69 -30 93 -31 28 -38 51 -20
62 17 10 11 36 -16 69 -14 17 -43 59 -65 94 -51 82 -96 102 -187 85z m79 -597
c47 1 64 6 83 23 l23 22 7 -32 c3 -17 6 -50 6 -73 -1 -65 -78 -396 -92 -396
-4 0 -32 42 -62 93 -58 99 -56 90 -81 355 l-5 53 31 -23 c24 -18 43 -23 90
-22z m318 -478 c24 -79 57 -176 72 -216 32 -80 36 -123 15 -141 -11 -10 -17
-3 -32 36 -36 98 -73 190 -98 243 -17 37 -26 72 -26 106 0 58 9 114 19 114 3
0 26 -64 50 -142z m-535 -30 c13 -53 15 -79 6 -135 -5 -37 -15 -124 -21 -193
-18 -209 -20 -222 -36 -317 -9 -51 -20 -90 -25 -87 -5 3 -7 13 -3 22 3 9 10
88 15 176 5 89 14 217 20 286 5 69 12 169 16 223 3 54 7 97 9 95 1 -2 10 -33
19 -70z m362 -470 c-23 -3 -65 -7 -94 -7 -46 -1 -53 1 -48 17 2 9 17 71 32
137 l27 120 62 -130 61 -130 -40 -7z"/>
<path d="M1799 4185 c-8 -7 -56 -32 -108 -54 -52 -23 -103 -49 -114 -58 -72
-64 -88 -230 -82 -838 l4 -470 -31 -62 -31 -63 -103 0 -104 0 0 -335 0 -335
174 0 173 0 6 -117 c4 -84 11 -133 25 -169 11 -28 27 -92 36 -143 15 -83 15
-95 1 -122 -9 -17 -15 -48 -13 -72 3 -39 6 -43 42 -55 44 -14 97 -7 127 17 17
13 21 30 24 96 2 44 9 94 16 110 20 49 22 174 4 291 -9 60 -18 117 -21 127 -4
13 1 17 25 17 33 0 29 11 57 -165 11 -64 18 -168 18 -247 l1 -137 46 -10 c25
-6 55 -7 67 -4 12 3 39 -3 59 -13 74 -34 257 -26 270 12 7 21 -54 71 -102 84
-70 20 -77 37 -86 208 -4 81 -12 171 -18 201 -14 66 -13 201 0 261 9 40 28
481 33 742 1 102 6 118 30 99 21 -17 33 -7 47 39 7 22 22 46 34 54 34 22 55
77 55 142 0 50 -8 75 -55 174 -76 159 -85 221 -71 470 9 153 5 162 -85 210
-37 19 -74 41 -83 49 -23 19 -20 1 9 -56 13 -26 38 -95 55 -153 27 -92 32
-128 40 -290 12 -237 12 -296 2 -285 -5 6 -19 87 -31 180 -34 261 -41 303 -72
407 -16 54 -29 109 -29 122 0 16 -9 32 -26 42 -25 17 -26 16 -52 -10 l-27 -27
23 -19 c19 -16 22 -27 22 -97 l-1 -78 -48 115 c-26 63 -64 141 -83 172 -30 48
-37 55 -49 43z m-273 -1504 c24 4 34 -3 34 -26 0 -22 -4 -25 -40 -25 -41 0
-45 5 -34 48 5 17 10 20 19 12 7 -6 17 -10 21 -9z"/>
<path d="M2842 4155 c-12 -9 -65 -27 -116 -40 -52 -12 -99 -26 -104 -29 -28
-17 -60 -182 -82 -416 -13 -149 -50 -656 -50 -697 0 -25 5 -32 23 -35 20 -3
22 -9 28 -91 4 -63 11 -92 24 -107 10 -11 21 -17 25 -15 5 3 11 32 15 65 8 66
18 81 35 50 15 -29 44 -27 34 3 -27 86 -32 276 -10 387 l13 65 -1 -130 -1
-130 46 -3 45 -3 14 -51 c17 -67 106 -340 160 -491 l43 -119 36 7 c20 4 41 7
46 8 6 1 10 -50 9 -138 -2 -183 -28 -330 -113 -648 -37 -139 -66 -257 -64
-263 11 -30 104 -45 136 -21 26 19 47 122 47 231 0 151 14 212 79 338 31 60
60 111 65 112 10 1 19 -17 115 -219 94 -199 105 -239 94 -350 -9 -98 -6 -135
14 -157 23 -26 78 -39 113 -26 29 10 30 11 30 80 0 130 -17 205 -71 314 -50
100 -50 102 -70 273 -10 95 -28 196 -38 224 -10 29 -28 78 -40 109 -11 32 -21
77 -21 100 0 42 -11 96 -25 131 -5 12 -2 17 11 17 11 0 35 10 54 22 19 12 53
27 75 33 l40 13 -3 58 c-2 33 -21 177 -42 322 -37 249 -41 266 -74 326 -40 72
-47 99 -18 73 24 -22 50 -21 84 1 34 22 211 209 227 240 19 35 -3 87 -64 152
-28 30 -98 109 -154 175 -128 150 -127 149 -209 175 -37 12 -87 33 -111 46
l-44 24 8 -212 c5 -117 9 -258 9 -312 l1 -99 -135 -37 -135 -36 -3 34 c-2 18
2 73 8 120 16 129 28 385 21 480 l-6 83 -23 -16z m574 -440 c62 -35 104 -75
104 -100 0 -14 -123 -115 -140 -115 -6 0 -35 16 -65 36 -46 31 -55 42 -55 66
0 40 56 148 77 148 9 0 44 -16 79 -35z"/>
<path d="M200 2979 c-33 -12 -65 -78 -56 -116 13 -57 29 -83 61 -103 30 -18
65 -27 65 -15 0 2 -12 29 -26 58 -19 38 -25 62 -20 81 3 14 10 26 15 26 13 0
20 -39 8 -43 -12 -4 -2 -37 12 -37 11 0 27 47 36 106 6 37 4 42 -17 48 -30 8
-47 7 -78 -5z"/>
<path d="M1144 2845 c-3 -8 1 -24 10 -37 25 -35 20 -73 -11 -97 -49 -36 -52
-41 -47 -56 14 -36 113 -4 144 47 27 44 27 111 0 138 -24 24 -88 28 -96 5z"/>
</g>
</svg>
